<?xml version="1.0" encoding="UTF-8" standalone="no"?>
<!-- Created with Inkscape (http://www.inkscape.org/) -->

<svg
   xmlns:dc="http://purl.org/dc/elements/1.1/"
   xmlns:cc="http://creativecommons.org/ns#"
   xmlns:rdf="http://www.w3.org/1999/02/22-rdf-syntax-ns#"
   xmlns:svg="http://www.w3.org/2000/svg"
   xmlns="http://www.w3.org/2000/svg"
   xmlns:sodipodi="http://sodipodi.sourceforge.net/DTD/sodipodi-0.dtd"
   xmlns:inkscape="http://www.inkscape.org/namespaces/inkscape"
   width="7.4215398mm"
   height="14.03901mm"
   viewBox="0 0 7.4215398 14.03901"
   version="1.1"
   id="svg937"
   inkscape:export-filename="D:\Thimo\Desktop\SCHOOL\ICT-Flex\OOP\Medior\Wakkenspel\JavaProject\images\questionmark.png"
   inkscape:export-xdpi="95.82917"
   inkscape:export-ydpi="95.82917"
   inkscape:version="0.92.4 (5da689c313, 2019-01-14)"
   sodipodi:docname="QuestionMark.svg">
  <defs
     id="defs931" />
  <sodipodi:namedview
     id="base"
     pagecolor="#ffffff"
     bordercolor="#666666"
     borderopacity="1.0"
     inkscape:pageopacity="0.0"
     inkscape:pageshadow="2"
     inkscape:zoom="5.6"
     inkscape:cx="22.896249"
     inkscape:cy="28.069972"
     inkscape:document-units="mm"
     inkscape:current-layer="layer1"
     showgrid="false"
     inkscape:pagecheckerboard="true"
     fit-margin-top="0"
     fit-margin-left="0"
     fit-margin-right="0"
     fit-margin-bottom="0"
     inkscape:window-width="1920"
     inkscape:window-height="1001"
     inkscape:window-x="-9"
     inkscape:window-y="-9"
     inkscape:window-maximized="1" />
  <metadata
     id="metadata934">
    <rdf:RDF>
      <cc:Work
         rdf:about="">
        <dc:format>image/svg+xml</dc:format>
        <dc:type
           rdf:resource="http://purl.org/dc/dcmitype/StillImage" />
        <dc:title></dc:title>
      </cc:Work>
    </rdf:RDF>
  </metadata>
  <g
     inkscape:label="Layer 1"
     inkscape:groupmode="layer"
     id="layer1"
     transform="translate(-174.69399,-141.81383)">
    <path
       inkscape:connector-curvature="0"
       d="m 182.11553,145.3259 q 0,0.90574 -0.30499,1.6174 -0.29575,0.70241 -0.79484,1.23846 -0.49908,0.53605 -1.1368,0.98892 -0.62847,0.45287 -1.33088,0.87802 v 2.10724 h -1.65437 v -2.8189 q 0.51757,-0.31423 1.2015,-0.74862 0.69317,-0.44363 1.08134,-0.82256 0.49908,-0.47136 0.77635,-1.02589 0.27727,-0.56378 0.27727,-1.27544 0,-1.04437 -0.6562,-1.5527 -0.6562,-0.51757 -1.70982,-0.51757 -0.92423,0 -1.74679,0.31424 -0.81332,0.305 -1.32165,0.63772 h -0.10166 v -1.88543 q 0.61923,-0.24954 1.56194,-0.44363 0.94271,-0.20333 1.78376,-0.20333 1.89467,0 2.98526,0.97044 1.09058,0.9612 1.09058,2.54163 z m -3.41964,10.52694 h -1.88542 v -1.95011 h 1.88542 z"
       style="font-style:normal;font-variant:normal;font-weight:normal;font-stretch:normal;font-size:18.92817116px;line-height:1.25;font-family:Tahoma;-inkscape-font-specification:Tahoma;letter-spacing:0px;word-spacing:0px;fill:#ffffff;fill-opacity:1;stroke:none;stroke-width:0.47320428"
       id="path919" />
  </g>
</svg>
